<svg width="163" height="31" viewBox="0 0 163 31" fill="none" xmlns="http://www.w3.org/2000/svg">
<path d="M17.5527 24.095L0.642578 17.0461V13.4778L17.5527 6.41138V11.052L7.11133 15.2532L17.5527 19.4368V24.095ZM32.7227 0.786377L24.2852 30.3352H18.9062L27.3965 0.786377H32.7227ZM51.3203 17.9954C51.3203 20.8547 51.25 22.8821 51.1094 24.0774C50.9805 25.261 50.5586 26.345 49.8438 27.3293C49.1406 28.3137 48.1855 29.0696 46.9785 29.5969C45.7715 30.1243 44.3652 30.3879 42.7598 30.3879C41.2363 30.3879 39.8652 30.1418 38.6465 29.6497C37.4395 29.1458 36.4668 28.3958 35.7285 27.3997C34.9902 26.4036 34.5508 25.3196 34.4102 24.1477C34.2695 22.9758 34.1992 20.925 34.1992 17.9954V13.1262C34.1992 10.2668 34.2637 8.24536 34.3926 7.06177C34.5332 5.86646 34.9551 4.77661 35.6582 3.79224C36.373 2.80786 37.334 2.052 38.541 1.52466C39.748 0.997314 41.1543 0.733643 42.7598 0.733643C44.2832 0.733643 45.6484 0.985596 46.8555 1.4895C48.0742 1.98169 49.0527 2.72583 49.791 3.72192C50.5293 4.71802 50.9688 5.802 51.1094 6.97388C51.25 8.14575 51.3203 10.1965 51.3203 13.1262V17.9954ZM43.9199 8.6438C43.9199 7.31958 43.8438 6.47583 43.6914 6.11255C43.5508 5.73755 43.252 5.55005 42.7949 5.55005C42.4082 5.55005 42.1094 5.70239 41.8984 6.00708C41.6992 6.30005 41.5996 7.17896 41.5996 8.6438V21.9329C41.5996 23.5852 41.6641 24.6047 41.793 24.9915C41.9336 25.3782 42.25 25.5715 42.7422 25.5715C43.2461 25.5715 43.5684 25.3489 43.709 24.9036C43.8496 24.4583 43.9199 23.3977 43.9199 21.7219V8.6438ZM145.627 6.41138L162.537 13.4426V17.0286L145.627 24.095V19.4543L156.068 15.2532L145.627 11.0696V6.41138Z" fill="#157F1F"/>
<path d="M61.1113 6.46411L60.9883 8.60864C61.5039 7.75317 62.1309 7.1145 62.8691 6.69263C63.6191 6.25903 64.4805 6.04224 65.4531 6.04224C66.6719 6.04224 67.668 6.32935 68.4414 6.90356C69.2148 7.47778 69.7129 8.20435 69.9355 9.08325C70.1582 9.95044 70.2695 11.4036 70.2695 13.4426V29.7903H63.168V13.636C63.168 12.0305 63.1152 11.052 63.0098 10.7004C62.9043 10.3489 62.6113 10.1731 62.1309 10.1731C61.627 10.1731 61.3105 10.3782 61.1816 10.7883C61.0527 11.1868 60.9883 12.2649 60.9883 14.0227V29.7903H53.8867V6.46411H61.1113ZM80.2188 3.35278V7.02661H82.1348V10.718H80.2188V23.1985C80.2188 24.7336 80.2949 25.5891 80.4473 25.7649C80.6113 25.9407 81.2734 26.0286 82.4336 26.0286V29.7903H79.5684C77.9512 29.7903 76.7969 29.7258 76.1055 29.5969C75.4141 29.4563 74.8047 29.1458 74.2773 28.6653C73.75 28.1731 73.4219 27.6165 73.293 26.9954C73.1641 26.3625 73.0996 24.886 73.0996 22.5657V10.718H71.5703V7.02661H73.0996V3.35278H80.2188ZM90.0449 15.4993H83.3828V13.9348C83.3828 12.1301 83.5879 10.7415 83.998 9.7688C84.4199 8.78442 85.2578 7.91724 86.5117 7.16724C87.7656 6.41724 89.3945 6.04224 91.3984 6.04224C93.8008 6.04224 95.6113 6.46997 96.8301 7.32544C98.0488 8.16919 98.7812 9.21216 99.0273 10.4543C99.2734 11.6848 99.3965 14.2278 99.3965 18.0833V29.7903H92.4883V27.7161C92.0547 28.5481 91.4922 29.175 90.8008 29.5969C90.1211 30.0071 89.3066 30.2122 88.3574 30.2122C87.1152 30.2122 85.9727 29.8665 84.9297 29.175C83.8984 28.4719 83.3828 26.9426 83.3828 24.5872V22.6711C83.3828 20.925 83.6582 19.7356 84.209 19.1028C84.7598 18.47 86.125 17.7317 88.3047 16.8879C90.6367 15.9739 91.8848 15.3586 92.0488 15.0422C92.2129 14.7258 92.2949 14.0813 92.2949 13.1086C92.2949 11.8899 92.2012 11.0989 92.0137 10.7356C91.8379 10.3606 91.5391 10.1731 91.1172 10.1731C90.6367 10.1731 90.3379 10.3313 90.2207 10.6477C90.1035 10.9524 90.0449 11.7551 90.0449 13.0559V15.4993ZM92.2949 18.6985C91.1582 19.5305 90.4961 20.2278 90.3086 20.7903C90.1328 21.3528 90.0449 22.1614 90.0449 23.2161C90.0449 24.4231 90.1211 25.2024 90.2734 25.554C90.4375 25.9055 90.7539 26.0813 91.2227 26.0813C91.668 26.0813 91.9551 25.9465 92.084 25.677C92.2246 25.3958 92.2949 24.6692 92.2949 23.4973V18.6985ZM109.152 1.3313V29.7903H101.84V1.3313H109.152ZM127.803 18.5403H118.609V23.5852C118.609 24.6399 118.686 25.3196 118.838 25.6243C118.99 25.929 119.283 26.0813 119.717 26.0813C120.256 26.0813 120.613 25.8821 120.789 25.4836C120.977 25.0735 121.07 24.2883 121.07 23.1282V20.052H127.803V21.7747C127.803 23.2161 127.709 24.3235 127.521 25.0969C127.346 25.8704 126.924 26.6965 126.256 27.5754C125.588 28.4543 124.738 29.1165 123.707 29.5618C122.688 29.9954 121.404 30.2122 119.857 30.2122C118.357 30.2122 117.033 29.9954 115.885 29.5618C114.736 29.1282 113.84 28.5364 113.195 27.7864C112.562 27.0247 112.123 26.1926 111.877 25.2903C111.631 24.3762 111.508 23.052 111.508 21.3176V14.5149C111.508 12.4758 111.783 10.8704 112.334 9.69849C112.885 8.51489 113.787 7.61255 115.041 6.99146C116.295 6.35864 117.736 6.04224 119.365 6.04224C121.357 6.04224 122.998 6.4231 124.287 7.18481C125.588 7.93481 126.496 8.93677 127.012 10.1907C127.539 11.4329 127.803 13.1848 127.803 15.4465V18.5403ZM120.684 14.7434V13.0383C120.684 11.8313 120.619 11.052 120.49 10.7004C120.361 10.3489 120.098 10.1731 119.699 10.1731C119.207 10.1731 118.902 10.3254 118.785 10.6301C118.668 10.9231 118.609 11.7258 118.609 13.0383V14.7434H120.684ZM144.203 6.46411L141.373 17.6086L144.801 29.7903H137.893C137.213 26.72 136.697 24.0774 136.346 21.8625C135.877 24.6282 135.367 27.2708 134.816 29.7903H128.875L131.934 17.6086L128.875 6.46411H134.816C135.766 11.2219 136.275 13.9231 136.346 14.5676C137.025 10.595 137.541 7.8938 137.893 6.46411H144.203Z" fill="#F0E3CA"/>
</svg>
