<svg width="33" height="33" viewBox="0 0 33 33" fill="none" xmlns="http://www.w3.org/2000/svg">
<path d="M19.1667 26.1236H13.8334C11.0044 26.1236 8.29126 24.9998 6.29089 22.9994C4.2905 20.999 3.16669 18.2859 3.16669 15.4569V8.79028H8.50002V15.4569C8.50002 16.8714 9.06192 18.228 10.0622 19.2281C11.0623 20.2284 12.4189 20.7903 13.8334 20.7903V8.79028H19.1667V14.7903L19.2067 14.785C20.668 14.6026 22.0125 13.8928 22.9873 12.7888C23.962 11.6849 24.4999 10.263 24.5 8.79028H29.8334L29.3774 11.0716C29.1042 12.4371 28.5229 13.7221 27.6776 14.8287C26.8324 15.9353 25.7455 16.8342 24.5 17.457C25.7111 17.8605 26.7915 18.5821 27.628 19.5465C28.4645 20.5108 29.0263 21.6823 29.2547 22.9383L29.8334 26.1236H24.5C24.4999 24.6509 23.962 23.229 22.9873 22.1251C22.0125 21.0211 20.668 20.3113 19.2067 20.129V26.129L19.1667 26.1236Z" stroke="#F0E3CA" stroke-width="3" stroke-linecap="round" stroke-linejoin="round"/>
</svg>
